<svg width="16" height="8" viewBox="0 0 16 8" fill="none" xmlns="http://www.w3.org/2000/svg">
<path d="M13.054 5.72972C11.9187 6.01158 11.1527 6.05436 9.56076 5.71106C7.56674 5.28147 5.66276 6.26788 4.89532 7.15625C5.68675 5.93354 7.46519 5.00942 9.59069 4.69229C10.2992 5.15302 11.6102 5.83151 13.054 5.72972Z" fill="black"/>
<path d="M13.054 5.72972C11.9187 6.01158 11.1527 6.05436 9.56076 5.71106C7.56674 5.28147 5.66276 6.26788 4.89532 7.15625C5.68675 5.93354 7.46519 5.00942 9.59069 4.69229C10.2992 5.15302 11.6102 5.83151 13.054 5.72972Z" fill="url(#paint0_linear_1716_1700)"/>
<path d="M3.48969 0.126053C3.54737 0.123508 3.61632 0.120963 3.6946 0.119509C3.72441 0.117328 3.78851 0.112363 3.87902 0.108486C3.90374 0.107153 3.93101 0.106305 3.95924 0.105456C3.98372 0.104002 4.01074 0.102423 4.04116 0.10109C4.09969 0.0985456 4.16851 0.0961213 4.24655 0.0943036C4.27696 0.0922437 4.34034 0.0878825 4.43146 0.0833988C4.89095 0.0629206 6.03085 0.0551658 6.87677 0.413843C7.9597 0.873457 9.76024 2.44861 10.5734 3.07278C11.188 3.54475 11.9536 4.23087 12.9807 4.72729C14.0874 5.26222 15.1737 5.17552 16 5.61659C15.5261 5.54971 14.9732 5.52087 14.4388 5.60399C13.9044 5.68712 13.5625 5.75304 12.5889 5.42683C11.956 5.2149 11.4923 4.97788 11.0282 4.67701C11.0322 4.67701 11.0357 4.67628 11.0398 4.67628C10.9605 4.62902 10.8832 4.57922 10.8061 4.52893C10.6289 4.40727 10.4475 4.27483 10.2532 4.13075L10.2522 4.13099C9.77829 3.7642 9.3669 3.38662 9.04797 3.1416C8.23465 2.51731 6.43387 0.942044 5.35118 0.482429C4.69053 0.202394 3.85116 0.145804 3.29606 0.144472C3.29206 0.142412 3.2883 0.140715 3.2843 0.138655C3.2843 0.138655 3.35955 0.131869 3.48969 0.126053Z" fill="url(#paint1_linear_1716_1700)"/>
<path d="M0.20576 0.0502539C0.263805 0.047709 0.332875 0.0452819 0.410793 0.0435853C0.441209 0.0416465 0.504584 0.0366793 0.595347 0.0326805C0.619946 0.0314689 0.647334 0.0307384 0.675932 0.0295267C0.699925 0.0284362 0.727554 0.0269837 0.757727 0.0254087C0.816257 0.0226216 0.8846 0.020443 0.962517 0.0189886C0.993297 0.0168076 1.05679 0.0119581 1.14756 0.00771713C1.60767 -0.0130043 2.74771 -0.0205202 3.59293 0.338289C4.67627 0.797433 6.47637 2.37287 7.28971 2.9973C7.57327 3.21494 7.90809 3.49147 8.27841 3.76909C9.03674 4.38479 9.92425 4.88466 10.2173 5.05043C10.0655 5.08351 9.63524 5.16651 9.23462 5.14204C7.70741 4.75087 6.52702 3.65203 5.76396 3.06577C4.95037 2.44158 3.15075 0.866385 2.06706 0.406635C1.40663 0.126592 0.567356 0.0701241 0.0119965 0.0685487C0.00799764 0.0668521 0.00496831 0.0649109 0 0.0630932C0 0.0630932 0.0759785 0.0561914 0.20576 0.0502539Z" fill="black"/>
<path d="M0.20576 0.0502539C0.263805 0.047709 0.332875 0.0452819 0.410793 0.0435853C0.441209 0.0416465 0.504584 0.0366793 0.595347 0.0326805C0.619946 0.0314689 0.647334 0.0307384 0.675932 0.0295267C0.699925 0.0284362 0.727554 0.0269837 0.757727 0.0254087C0.816257 0.0226216 0.8846 0.020443 0.962517 0.0189886C0.993297 0.0168076 1.05679 0.0119581 1.14756 0.00771713C1.60767 -0.0130043 2.74771 -0.0205202 3.59293 0.338289C4.67627 0.797433 6.47637 2.37287 7.28971 2.9973C7.57327 3.21494 7.90809 3.49147 8.27841 3.76909C9.03674 4.38479 9.92425 4.88466 10.2173 5.05043C10.0655 5.08351 9.63524 5.16651 9.23462 5.14204C7.70741 4.75087 6.52702 3.65203 5.76396 3.06577C4.95037 2.44158 3.15075 0.866385 2.06706 0.406635C1.40663 0.126592 0.567356 0.0701241 0.0119965 0.0685487C0.00799764 0.0668521 0.00496831 0.0649109 0 0.0630932C0 0.0630932 0.0759785 0.0561914 0.20576 0.0502539Z" fill="url(#paint2_linear_1716_1700)"/>
<defs>
<linearGradient id="paint0_linear_1716_1700" x1="3.94188" y1="-2.46582" x2="8.79338" y2="8.32988" gradientUnits="userSpaceOnUse">
<stop stop-color="#83CC4C"/>
<stop offset="1" stop-color="#3883BE"/>
</linearGradient>
<linearGradient id="paint1_linear_1716_1700" x1="6.83944" y1="-2.0836" x2="11.1315" y2="7.46713" gradientUnits="userSpaceOnUse">
<stop stop-color="#83CC4C"/>
<stop offset="1" stop-color="#3883BE"/>
</linearGradient>
<linearGradient id="paint2_linear_1716_1700" x1="3.24867" y1="-0.73559" x2="7.49085" y2="8.70425" gradientUnits="userSpaceOnUse">
<stop stop-color="#83CC4C"/>
<stop offset="1" stop-color="#3883BE"/>
</linearGradient>
</defs>
</svg>
