<svg width="170" height="60" viewBox="0 0 170 60" fill="none" xmlns="http://www.w3.org/2000/svg">
<path d="M141.281 30.4379C135.25 31.9352 131.181 32.1624 122.725 30.3388C112.133 28.0568 102.019 33.2966 97.9422 38.0156C102.146 31.5206 111.593 26.6117 122.884 24.9271C126.648 27.3745 133.611 30.9786 141.281 30.4379Z" fill="#1F3358"/>
<path d="M141.281 30.4379C135.25 31.9352 131.181 32.1624 122.725 30.3388C112.133 28.0568 102.019 33.2966 97.9422 38.0156C102.146 31.5206 111.593 26.6117 122.884 24.9271C126.648 27.3745 133.611 30.9786 141.281 30.4379Z" fill="url(#paint0_linear_713_70)"/>
<path d="M90.4744 0.664242C90.7809 0.650724 91.1471 0.637201 91.563 0.629478C91.7213 0.617891 92.0618 0.59152 92.5427 0.570921C92.674 0.563841 92.8188 0.559334 92.9688 0.554829C93.0988 0.547104 93.2424 0.538713 93.404 0.531633C93.7149 0.518114 94.0805 0.505238 94.495 0.495581C94.6566 0.484638 94.9933 0.461472 95.4773 0.437654C97.9183 0.328867 103.974 0.287672 108.467 2.19305C114.22 4.63464 123.785 13.0022 128.105 16.318C131.37 18.8252 135.437 22.47 140.893 25.1072C146.772 27.9488 152.543 27.4882 156.932 29.8313C154.415 29.476 151.477 29.3228 148.639 29.7644C145.8 30.206 143.983 30.5561 138.812 28.8233C135.45 27.6974 132.986 26.4383 130.521 24.84C130.542 24.84 130.561 24.8362 130.583 24.8362C130.161 24.5851 129.75 24.3205 129.341 24.0534C128.4 23.4071 127.436 22.7035 126.404 21.9382L126.399 21.9395C123.881 19.991 121.696 17.9851 120.001 16.6836C115.681 13.3672 106.115 4.99899 100.363 2.5574C96.8536 1.06979 92.3946 0.769167 89.4458 0.762087C89.4246 0.751143 89.4046 0.742132 89.3834 0.731188C89.3834 0.731188 89.7831 0.695139 90.4744 0.664242Z" fill="url(#paint1_linear_713_70)"/>
<path d="M73.0284 0.268234C73.3367 0.254715 73.7036 0.241823 74.1175 0.232811C74.2791 0.222511 74.6158 0.196125 75.0979 0.174883C75.2286 0.168446 75.3741 0.164568 75.526 0.158131C75.6534 0.152338 75.8002 0.144623 75.9605 0.136255C76.2714 0.121449 76.6344 0.109877 77.0483 0.102152C77.2118 0.0905647 77.5491 0.064806 78.0313 0.0422764C80.4754 -0.0677986 86.5315 -0.107723 91.0213 1.7983C96.7761 4.23731 106.338 12.6062 110.659 15.9232C112.165 17.0793 113.944 18.5483 115.911 20.023C119.939 23.2937 124.654 25.949 126.21 26.8296C125.404 27.0053 123.119 27.4462 120.99 27.3162C112.878 25.2383 106.607 19.4012 102.554 16.2869C98.2321 12.9712 88.6724 4.60359 82.9157 2.16136C79.4075 0.673748 74.9492 0.373787 71.9991 0.365419C71.9778 0.356407 71.9618 0.346094 71.9354 0.336439C71.9354 0.336439 72.339 0.299776 73.0284 0.268234Z" fill="#1F3358"/>
<path d="M73.0284 0.268234C73.3367 0.254715 73.7036 0.241823 74.1175 0.232811C74.2791 0.222511 74.6158 0.196125 75.0979 0.174883C75.2286 0.168446 75.3741 0.164568 75.526 0.158131C75.6534 0.152338 75.8002 0.144623 75.9605 0.136255C76.2714 0.121449 76.6344 0.109877 77.0483 0.102152C77.2118 0.0905647 77.5491 0.064806 78.0313 0.0422764C80.4754 -0.0677986 86.5315 -0.107723 91.0213 1.7983C96.7761 4.23731 106.338 12.6062 110.659 15.9232C112.165 17.0793 113.944 18.5483 115.911 20.023C119.939 23.2937 124.654 25.949 126.21 26.8296C125.404 27.0053 123.119 27.4462 120.99 27.3162C112.878 25.2383 106.607 19.4012 102.554 16.2869C98.2321 12.9712 88.6724 4.60359 82.9157 2.16136C79.4075 0.673748 74.9492 0.373787 71.9991 0.365419C71.9778 0.356407 71.9618 0.346094 71.9354 0.336439C71.9354 0.336439 72.339 0.299776 73.0284 0.268234Z" fill="url(#paint2_linear_713_70)"/>
<path d="M69.9345 40.8377H66.5164C66.078 40.8377 65.8263 41.0887 65.8263 41.5277V42.8763H62.2203V39.3636C62.2203 37.8895 62.7217 37.3565 64.2274 37.3565H79.751C81.2567 37.3565 81.7588 37.8895 81.7588 39.3636V42.8763H78.1508V41.5277C78.1508 41.0887 77.901 40.8377 77.4627 40.8377H74.0439V59.6211H69.9345V40.8377Z" fill="#1F3358"/>
<path d="M69.9345 40.8377H66.5164C66.078 40.8377 65.8263 41.0887 65.8263 41.5277V42.8763H62.2203V39.3636C62.2203 37.8895 62.7217 37.3565 64.2274 37.3565H79.751C81.2567 37.3565 81.7588 37.8895 81.7588 39.3636V42.8763H78.1508V41.5277C78.1508 41.0887 77.901 40.8377 77.4627 40.8377H74.0439V59.6211H69.9345V40.8377Z" fill="url(#paint3_linear_713_70)"/>
<path d="M84.2974 37.3565H87.747V41.0256H84.2974V37.3565ZM84.1088 47.7054C84.1088 47.2355 83.8571 47.016 83.4194 47.016H82.1641V43.6282H85.9607C87.4342 43.6282 88.0611 44.2873 88.0611 45.7614V55.5767C88.0611 56.0157 88.3122 56.2661 88.7512 56.2661H90.0064V59.6211H86.2105C84.7357 59.6211 84.1088 58.9941 84.1088 57.4891V47.7054Z" fill="#1F3358"/>
<path d="M84.2974 37.3565H87.747V41.0256H84.2974V37.3565ZM84.1088 47.7054C84.1088 47.2355 83.8571 47.016 83.4194 47.016H82.1641V43.6282H85.9607C87.4342 43.6282 88.0611 44.2873 88.0611 45.7614V55.5767C88.0611 56.0157 88.3122 56.2661 88.7512 56.2661H90.0064V59.6211H86.2105C84.7357 59.6211 84.1088 58.9941 84.1088 57.4891V47.7054Z" fill="url(#paint4_linear_713_70)"/>
<path d="M93.3603 47.7054C93.3603 47.2355 93.1099 47.016 92.6709 47.016H91.4156V43.6282H95.086C96.4964 43.6282 97.1865 44.2873 97.1865 45.417V45.8869C97.1865 46.2319 97.1556 46.5763 97.1556 46.5763H97.218C97.9699 45.0089 99.8836 43.2529 102.392 43.2529C104.807 43.2529 106.376 44.3813 107.065 46.5454H107.129C107.974 44.8209 110.045 43.2529 112.586 43.2529C115.909 43.2529 117.822 45.1344 117.822 49.3372V55.5767C117.822 56.0157 118.073 56.2661 118.513 56.2661H119.736V59.6211H115.972C114.467 59.6211 113.839 58.9941 113.839 57.4891V50.089C113.839 48.2706 113.494 46.8898 111.644 46.8898C109.669 46.8898 108.257 48.5525 107.818 50.5596C107.631 51.1866 107.568 51.8451 107.568 52.5976V59.6211H103.585V50.089C103.585 48.3646 103.333 46.8898 101.42 46.8898C99.4131 46.8898 98.0651 48.5525 97.563 50.5911C97.406 51.2175 97.3126 51.8773 97.3126 52.5976V59.6211H93.3603V47.7054Z" fill="#1F3358"/>
<path d="M93.3603 47.7054C93.3603 47.2355 93.1099 47.016 92.6709 47.016H91.4156V43.6282H95.086C96.4964 43.6282 97.1865 44.2873 97.1865 45.417V45.8869C97.1865 46.2319 97.1556 46.5763 97.1556 46.5763H97.218C97.9699 45.0089 99.8836 43.2529 102.392 43.2529C104.807 43.2529 106.376 44.3813 107.065 46.5454H107.129C107.974 44.8209 110.045 43.2529 112.586 43.2529C115.909 43.2529 117.822 45.1344 117.822 49.3372V55.5767C117.822 56.0157 118.073 56.2661 118.513 56.2661H119.736V59.6211H115.972C114.467 59.6211 113.839 58.9941 113.839 57.4891V50.089C113.839 48.2706 113.494 46.8898 111.644 46.8898C109.669 46.8898 108.257 48.5525 107.818 50.5596C107.631 51.1866 107.568 51.8451 107.568 52.5976V59.6211H103.585V50.089C103.585 48.3646 103.333 46.8898 101.42 46.8898C99.4131 46.8898 98.0651 48.5525 97.563 50.5911C97.406 51.2175 97.3126 51.8773 97.3126 52.5976V59.6211H93.3603V47.7054Z" fill="url(#paint5_linear_713_70)"/>
<path d="M132.467 49.5539C132.404 47.6408 131.086 46.3237 129.456 46.3237C127.417 46.3237 125.975 47.5468 125.535 49.5539H132.467ZM129.456 43.2507C134.034 43.2507 136.543 46.6057 136.543 50.8387C136.543 51.3092 136.449 52.3134 136.449 52.3134H125.411C125.724 55.1361 127.794 56.6089 130.209 56.6089C132.78 56.6089 134.694 54.8213 134.694 54.8213L136.356 57.5809C136.356 57.5809 133.909 59.9961 129.927 59.9961C124.627 59.9961 121.334 56.1699 121.334 51.6234C121.334 46.6997 124.659 43.2507 129.456 43.2507Z" fill="#1F3358"/>
<path d="M132.467 49.5539C132.404 47.6408 131.086 46.3237 129.456 46.3237C127.417 46.3237 125.975 47.5468 125.535 49.5539H132.467ZM129.456 43.2507C134.034 43.2507 136.543 46.6057 136.543 50.8387C136.543 51.3092 136.449 52.3134 136.449 52.3134H125.411C125.724 55.1361 127.794 56.6089 130.209 56.6089C132.78 56.6089 134.694 54.8213 134.694 54.8213L136.356 57.5809C136.356 57.5809 133.909 59.9961 129.927 59.9961C124.627 59.9961 121.334 56.1699 121.334 51.6234C121.334 46.6997 124.659 43.2507 129.456 43.2507Z" fill="url(#paint6_linear_713_70)"/>
<path d="M7.03478 56.1399H10.234C12.2411 56.1399 13.3702 54.792 13.3702 52.9098C13.3702 51.0598 12.2096 49.7106 10.234 49.7106H6.34473V55.4505C6.34473 55.8895 6.59577 56.1399 7.03478 56.1399ZM9.85744 46.4495C11.5819 46.4495 12.5546 45.1949 12.5546 43.5953C12.5546 41.9957 11.6135 40.8351 9.795 40.8351H6.34473V46.4495H9.85744ZM2.23657 40.8351H0.197937V37.3539H9.82589C13.8407 37.3539 16.7258 39.4241 16.7258 43.0932C16.7258 45.5709 15.3772 47.1705 14.0287 47.8605V47.9236C16.4432 48.6446 17.6038 50.9027 17.6038 53.1608C17.6038 57.614 14.0602 59.6211 9.91987 59.6211H4.36917C2.89508 59.6211 2.23657 58.9941 2.23657 57.4885V40.8351Z" fill="#1F3358"/>
<path d="M31.0253 49.5565C30.9622 47.6434 29.6452 46.3263 28.014 46.3263C25.976 46.3263 24.5335 47.5494 24.0938 49.5565H31.0253ZM28.014 43.2526C32.5934 43.2526 35.1019 46.6083 35.1019 50.842C35.1019 51.3125 35.0085 52.3161 35.0085 52.3161H23.9689C24.2818 55.1394 26.3519 56.6128 28.7671 56.6128C31.3388 56.6128 33.2519 54.8252 33.2519 54.8252L34.9139 57.5848C34.9139 57.5848 32.4678 60 28.4846 60C23.1843 60 19.8917 56.1738 19.8917 51.6266C19.8917 46.7023 23.2158 43.2526 28.014 43.2526Z" fill="#1F3358"/>
<path d="M39.0196 54.5433C39.0196 54.5433 41.0583 56.8954 43.787 56.8954C45.0107 56.8954 45.9511 56.3933 45.9511 55.3273C45.9511 53.0692 37.5147 53.1007 37.5147 47.926C37.5147 44.7267 40.3998 43.2526 43.7245 43.2526C45.8887 43.2526 49.3383 43.9736 49.3383 46.5767V48.2388H45.8256V47.4554C45.8256 46.7023 44.6965 46.3263 43.8185 46.3263C42.4075 46.3263 41.4348 46.8278 41.4348 47.7689C41.4348 50.2774 49.9337 49.776 49.9337 55.1078C49.9337 58.1184 47.2681 60 43.787 60C39.3962 60 37.1387 57.1464 37.1387 57.1464L39.0196 54.5433Z" fill="#1F3358"/>
<path d="M53.6959 46.797H51.6264V43.63H53.7905V39.2701H57.6792V43.63H61.3174V46.797H57.6792V53.2579C57.6792 55.8926 59.7494 56.2692 60.8469 56.2692C61.2859 56.2692 61.5678 56.2061 61.5678 56.2061V59.6873C61.5678 59.6873 61.0664 59.7812 60.3448 59.7812C58.1182 59.7812 53.6959 59.1227 53.6959 53.76V46.797Z" fill="#1F3358"/>
<path d="M144.463 40.8351H141.044C140.605 40.8351 140.355 41.0861 140.355 41.5251V42.8737H136.747V39.361C136.747 37.8876 137.25 37.3539 138.754 37.3539H154.279C155.784 37.3539 156.286 37.8876 156.286 39.361V42.8737H152.68V41.5251C152.68 41.0861 152.429 40.8351 151.99 40.8351H148.571V59.6211H144.463V40.8351Z" fill="#1F3358"/>
<path d="M161.021 56.6128C163.624 56.6128 165.788 54.6064 165.788 51.6266C165.788 48.6785 163.624 46.6398 161.021 46.6398C158.449 46.6398 156.285 48.6785 156.285 51.6266C156.285 54.6064 158.449 56.6128 161.021 56.6128ZM161.021 43.2526C165.913 43.2526 169.802 46.7338 169.802 51.6266C169.802 56.5504 165.913 60 161.021 60C156.159 60 152.27 56.5504 152.27 51.6266C152.27 46.7338 156.159 43.2526 161.021 43.2526Z" fill="#1F3358"/>
<defs>
<linearGradient id="paint0_linear_713_70" x1="92.8775" y1="-13.0968" x2="118.649" y2="44.25" gradientUnits="userSpaceOnUse">
<stop stop-color="#83CC4C"/>
<stop offset="1" stop-color="#3883BE"/>
</linearGradient>
<linearGradient id="paint1_linear_713_70" x1="108.269" y1="-11.074" x2="131.069" y2="39.6618" gradientUnits="userSpaceOnUse">
<stop stop-color="#83CC4C"/>
<stop offset="1" stop-color="#3883BE"/>
</linearGradient>
<linearGradient id="paint2_linear_713_70" x1="89.1926" y1="-3.90624" x2="111.727" y2="46.239" gradientUnits="userSpaceOnUse">
<stop stop-color="#83CC4C"/>
<stop offset="1" stop-color="#3883BE"/>
</linearGradient>
<linearGradient id="paint3_linear_713_70" x1="71.3481" y1="63.8561" x2="72.1556" y2="35.1891" gradientUnits="userSpaceOnUse">
<stop stop-color="#83CC4C"/>
<stop offset="1" stop-color="#3883BE"/>
</linearGradient>
<linearGradient id="paint4_linear_713_70" x1="85.729" y1="64.2609" x2="86.5365" y2="35.5939" gradientUnits="userSpaceOnUse">
<stop stop-color="#83CC4C"/>
<stop offset="1" stop-color="#3883BE"/>
</linearGradient>
<linearGradient id="paint5_linear_713_70" x1="105.205" y1="64.8094" x2="106.012" y2="36.1434" gradientUnits="userSpaceOnUse">
<stop stop-color="#83CC4C"/>
<stop offset="1" stop-color="#3883BE"/>
</linearGradient>
<linearGradient id="paint6_linear_713_70" x1="128.536" y1="65.465" x2="129.344" y2="36.7979" gradientUnits="userSpaceOnUse">
<stop stop-color="#83CC4C"/>
<stop offset="1" stop-color="#3883BE"/>
</linearGradient>
</defs>
</svg>
